<?xml version="1.0" standalone="no"?>
<!DOCTYPE svg PUBLIC "-//W3C//DTD SVG 20010904//EN"
 "http://www.w3.org/TR/2001/REC-SVG-20010904/DTD/svg10.dtd">
<svg version="1.0" xmlns="http://www.w3.org/2000/svg"
 width="1080.000000pt" height="1080.000000pt" viewBox="0 0 1080.000000 1080.000000"
 preserveAspectRatio="xMidYMid meet">

<g transform="translate(0.000000,1080.000000) scale(0.100000,-0.100000)"
fill="#000000" stroke="none">
<path d="M4815 9710 c-997 -84 -1856 -479 -2551 -1174 -334 -335 -565 -657
-769 -1071 -212 -431 -328 -823 -391 -1320 -23 -173 -26 -667 -6 -845 91 -810
377 -1504 880 -2135 201 -253 572 -596 852 -788 316 -217 736 -422 1090 -531
685 -210 1455 -232 2145 -60 600 150 1122 414 1615 818 119 97 451 432 542
547 406 510 678 1071 812 1674 244 1101 13 2263 -633 3181 -406 576 -972 1050
-1594 1335 -425 195 -792 298 -1260 355 -150 18 -583 26 -732 14z m740 -264
c213 -28 397 -66 575 -118 58 -16 120 -34 138 -40 145 -42 447 -172 627 -270
356 -194 635 -406 918 -697 517 -533 870 -1211 1002 -1926 49 -270 60 -392 60
-705 0 -289 -6 -379 -41 -595 -150 -926 -634 -1757 -1363 -2344 -478 -385
-1069 -659 -1651 -765 -282 -52 -386 -61 -705 -61 -394 0 -589 23 -935 110
-426 106 -822 283 -1185 529 -827 559 -1388 1397 -1590 2373 -55 268 -69 422
-69 763 0 332 12 473 65 735 207 1036 846 1944 1754 2496 481 291 1068 482
1635 529 148 13 627 4 765 -14z"/>
<path d="M5208 8999 c-10 -5 -28 -45 -43 -92 -28 -93 -100 -382 -110 -442 -3
-22 -8 -48 -11 -57 -4 -13 3 -18 31 -24 20 -3 41 -2 46 3 5 5 16 39 25 76 l17
68 46 -6 c68 -9 71 -11 71 -47 0 -41 18 -105 31 -114 19 -11 56 5 67 31 18 39
14 169 -7 302 -11 65 -23 152 -27 193 -8 99 -22 120 -77 120 -23 0 -50 -5 -59
-11z m55 -298 l2 -96 -44 -3 -43 -3 6 38 c6 32 35 138 53 193 10 32 24 -35 26
-129z"/>
<path d="M5674 8963 c-12 -2 -29 -12 -37 -21 -8 -9 -43 -145 -77 -301 -68
-306 -68 -304 -6 -299 27 3 30 8 51 83 13 44 31 118 41 165 l19 85 6 -60 c4
-33 7 -89 8 -125 1 -64 13 -122 30 -148 4 -8 27 -16 49 -19 38 -5 42 -3 52 22
6 15 15 59 21 99 5 39 21 116 35 171 34 134 64 266 64 283 0 9 -12 12 -42 10
-38 -3 -43 -6 -49 -33 -4 -16 -20 -87 -36 -158 -28 -125 -28 -126 -35 -80 -3
27 -7 91 -7 143 -2 106 -13 169 -33 181 -13 9 -18 9 -54 2z"/>
<path d="M4430 8945 c-116 -53 -117 -161 -2 -293 138 -159 165 -210 128 -241
-13 -11 -38 12 -97 87 -13 16 -23 15 -50 -6 -21 -18 -22 -21 -10 -64 7 -25 26
-60 41 -77 26 -28 35 -31 86 -31 72 0 116 25 138 80 36 90 19 132 -102 265
-78 85 -107 136 -97 172 8 34 29 28 53 -16 13 -22 31 -43 42 -46 27 -8 60 12
60 36 0 38 -31 115 -51 127 -33 21 -101 24 -139 7z"/>
<path d="M4043 8830 c-13 -5 -23 -14 -23 -19 0 -5 18 -76 41 -158 22 -81 54
-199 70 -261 16 -63 32 -118 35 -124 10 -15 86 -2 100 17 10 13 9 27 -2 63
-14 46 -32 111 -74 267 -25 91 -88 219 -110 222 -8 1 -25 -2 -37 -7z"/>
<path d="M6146 8832 c-2 -4 -29 -77 -60 -162 -31 -85 -75 -203 -97 -262 -22
-60 -38 -112 -35 -116 3 -5 23 -17 46 -27 52 -24 59 -17 95 95 15 47 43 123
62 169 33 84 67 248 57 276 -6 15 -61 38 -68 27z"/>
<path d="M3733 8758 c-22 -6 -34 -16 -37 -31 -3 -12 -7 -34 -10 -48 -5 -23 14
-189 30 -259 3 -14 -22 15 -56 65 -73 107 -108 145 -131 145 -24 0 -79 -57
-79 -81 0 -17 57 -154 170 -406 16 -34 31 -76 35 -93 8 -38 38 -38 67 1 21 28
19 37 -39 169 -38 86 -73 173 -70 176 1 2 32 -40 67 -93 35 -52 69 -97 75
-100 7 -2 24 1 38 6 35 13 35 39 2 201 -14 68 -25 126 -24 129 0 3 17 -41 38
-99 47 -130 98 -242 114 -252 22 -14 64 -8 82 12 17 19 17 22 -15 97 -37 90
-163 372 -188 421 -23 45 -32 50 -69 40z"/>
<path d="M6432 8668 c-11 -18 -63 -121 -117 -228 -54 -107 -106 -207 -116
-221 -16 -23 -17 -28 -5 -39 8 -6 29 -10 47 -8 37 3 59 35 145 206 25 51 48
91 51 88 2 -2 -9 -48 -26 -102 -37 -117 -37 -128 -10 -148 37 -25 48 -17 167
127 40 48 75 87 78 87 2 0 -19 -37 -48 -82 -28 -46 -69 -120 -91 -165 -38 -80
-39 -84 -23 -108 22 -34 65 -44 83 -19 18 24 263 511 263 522 0 5 -16 17 -35
28 -34 18 -36 18 -72 -1 -20 -11 -75 -61 -122 -112 -47 -51 -86 -91 -88 -90
-1 2 11 45 27 97 43 137 47 176 22 189 -12 6 -41 11 -66 11 -39 0 -47 -4 -64
-32z"/>
<path d="M3101 8394 c-23 -19 -31 -34 -31 -58 0 -45 111 -329 191 -488 l39
-77 30 10 c38 14 39 43 5 117 -14 30 -25 55 -25 56 0 2 22 13 49 26 l50 23 52
-47 c56 -50 82 -57 99 -25 28 51 -15 113 -224 325 -109 110 -169 164 -183 164
-12 0 -35 -12 -52 -26z m177 -226 c39 -42 72 -81 72 -86 0 -5 -16 -22 -35 -36
l-34 -26 -17 32 c-9 17 -27 61 -39 97 -13 36 -26 74 -31 85 -12 31 7 16 84
-66z"/>
<path d="M6994 8391 c-61 -37 -76 -72 -92 -210 -7 -69 -16 -146 -19 -170 -5
-49 -42 -95 -67 -85 -18 7 -21 59 -6 98 12 34 4 55 -26 62 -29 7 -49 -8 -68
-50 -36 -79 -26 -120 41 -175 46 -38 99 -41 158 -8 60 34 76 75 87 230 9 142
19 180 52 202 33 24 39 18 32 -27 -11 -64 -9 -81 11 -96 31 -23 54 -10 84 49
26 48 28 60 19 85 -16 41 -48 74 -95 95 -51 24 -72 24 -111 0z"/>
<path d="M4806 7864 c-879 -119 -1608 -774 -1827 -1640 -51 -203 -62 -312 -56
-569 5 -238 15 -316 63 -507 97 -387 320 -764 616 -1043 544 -512 1293 -710
2025 -535 293 70 598 221 847 418 91 72 266 247 337 337 314 398 479 863 479
1350 0 269 -31 463 -111 708 -259 792 -962 1375 -1787 1481 -150 19 -445 20
-586 0z m605 -134 c16 -9 19 -22 19 -83 0 -93 12 -113 66 -104 21 4 88 32 149
63 97 49 113 54 138 45 15 -6 27 -17 27 -25 0 -24 61 -64 128 -84 69 -22 137
-59 166 -91 10 -11 26 -44 36 -73 16 -50 19 -53 73 -71 99 -33 178 -146 113
-163 -28 -7 -48 3 -105 50 -41 34 -110 62 -134 53 -7 -2 10 -17 37 -33 121
-71 176 -131 176 -188 0 -37 -4 -43 -52 -79 -32 -24 -38 -34 -38 -65 0 -77 69
-140 139 -127 55 10 69 21 96 75 37 72 66 68 125 -20 29 -43 52 -64 94 -85 51
-26 57 -32 62 -67 4 -21 10 -41 14 -43 4 -3 40 -9 79 -15 135 -19 168 -61 84
-106 -24 -12 -59 -32 -79 -45 l-36 -22 -67 72 c-36 40 -77 78 -91 84 -19 10
-26 21 -28 52 -4 47 -26 75 -59 75 -33 0 -244 -70 -265 -88 -10 -8 -18 -27
-18 -42 0 -40 -20 -59 -74 -69 -80 -15 -81 -17 -81 -211 l0 -169 -29 -30 c-21
-22 -39 -31 -62 -31 -37 0 -64 -8 -64 -20 0 -4 23 -36 51 -71 67 -84 94 -132
123 -216 13 -39 31 -82 40 -95 36 -54 107 -61 237 -23 122 36 125 35 131 -26
3 -28 12 -57 20 -66 14 -13 19 -13 48 2 44 23 60 14 60 -33 0 -34 -7 -45 -55
-91 -30 -29 -55 -58 -55 -64 0 -6 20 -30 45 -53 42 -38 45 -44 45 -93 0 -58
-26 -119 -71 -167 -19 -20 -36 -55 -50 -104 -23 -83 -48 -124 -89 -145 -51
-27 -55 -48 -25 -132 19 -52 25 -80 19 -94 -5 -10 -43 -47 -84 -82 -100 -84
-134 -133 -134 -195 0 -54 43 -159 70 -169 16 -6 158 132 389 380 97 104 124
117 160 77 21 -23 20 -24 -78 -154 -220 -289 -540 -530 -892 -669 -490 -194
-1067 -187 -1554 19 -669 285 -1137 891 -1246 1619 -26 169 -24 457 3 615 75
442 271 822 586 1136 113 112 290 255 368 297 33 17 35 17 78 -1 l45 -19 -35
-33 c-19 -18 -85 -75 -146 -125 -140 -117 -204 -202 -233 -311 -11 -42 -6 -77
11 -72 5 2 26 35 47 73 27 52 44 71 61 73 22 4 23 2 17 -46 -3 -28 -27 -96
-53 -153 -49 -108 -63 -173 -42 -200 7 -8 39 -32 70 -52 42 -26 65 -51 90 -94
19 -32 46 -64 60 -71 30 -14 45 -52 55 -129 5 -47 11 -58 41 -81 31 -23 45
-27 106 -27 39 0 86 4 104 8 27 7 32 6 32 -9 0 -26 -41 -76 -170 -209 -138
-141 -150 -158 -150 -205 0 -39 11 -58 77 -136 46 -55 73 -109 73 -147 0 -13
-14 -50 -31 -82 -39 -74 -33 -87 73 -150 88 -52 99 -70 99 -151 0 -80 -19
-130 -78 -195 -65 -73 -66 -86 -20 -248 l32 -116 -3 -207 c-2 -164 0 -214 12
-241 22 -55 87 -88 121 -63 19 13 19 17 2 134 -22 164 -8 212 63 212 50 0 82
27 119 102 29 57 33 61 69 64 21 2 55 10 74 18 50 21 123 106 149 175 23 58
24 59 79 75 108 30 142 65 166 168 22 92 52 135 173 249 60 56 114 113 120
126 29 63 0 133 -74 185 -78 54 -288 118 -386 118 -25 0 -29 4 -29 28 0 15 23
76 52 135 40 84 50 112 42 125 -6 9 -39 31 -73 49 -77 39 -97 57 -122 106 -29
56 -93 116 -156 144 -83 38 -179 41 -333 9 -112 -22 -127 -23 -147 -10 -20 12
-23 23 -23 72 0 32 7 79 16 105 25 73 18 90 -41 103 -34 7 -49 15 -47 25 2 8
7 16 11 19 51 34 100 85 92 93 -18 18 -82 9 -115 -16 -42 -32 -62 -38 -90 -27
-34 12 -49 62 -35 114 8 31 31 61 93 121 94 94 167 135 236 135 79 0 110 -57
110 -202 0 -43 4 -78 9 -78 10 0 32 56 63 163 21 74 27 83 94 147 105 99 239
160 358 160 49 0 62 13 42 41 -16 23 -22 59 -10 59 3 0 24 -15 47 -34 77 -61
125 -72 168 -37 l23 18 -25 14 c-13 7 -42 22 -63 34 -53 28 -63 59 -30 92 21
21 32 24 60 20 50 -8 101 -43 130 -88 28 -45 51 -50 60 -13 18 71 -22 167
-105 254 -67 71 -92 76 -146 29 -19 -17 -65 -51 -102 -74 -70 -45 -83 -45 -83
2 0 12 -4 33 -10 47 -9 23 -12 25 -35 14 -22 -10 -29 -9 -48 11 -19 18 -20 23
-7 31 19 12 86 12 167 1 77 -11 101 -6 109 26 4 14 22 32 46 44 l39 20 40 -36
c33 -30 47 -36 77 -33 40 3 43 14 27 80 -7 27 -7 27 56 31 35 2 70 4 77 5 7 1
22 -3 33 -8z"/>
<path d="M2151 4862 c-5 -10 -34 -26 -64 -35 -73 -23 -107 -51 -107 -87 0 -57
53 -76 127 -45 31 13 34 17 22 31 -10 12 -24 15 -64 10 -50 -6 -50 -6 -22 10
16 8 49 22 75 30 42 13 48 12 57 -2 30 -47 32 -49 48 -35 12 10 14 18 6 38
-11 30 -13 27 31 39 21 6 36 17 38 28 6 30 -12 39 -54 27 -25 -7 -42 -7 -48
-1 -15 15 -34 12 -45 -8z"/>
<path d="M7971 4846 c-9 -10 -11 -29 -8 -52 4 -20 3 -34 0 -30 -8 8 -33 -13
-33 -29 0 -7 37 -28 83 -48 107 -45 109 -46 130 -35 31 16 18 37 -41 67 -62
31 -114 70 -95 71 6 0 47 -13 91 -29 75 -28 81 -29 96 -13 22 25 9 37 -76 72
-103 41 -131 46 -147 26z"/>
<path d="M2142 4584 c-29 -14 -57 -35 -63 -46 -17 -32 -2 -73 35 -93 30 -16
36 -16 87 -2 60 18 129 69 129 96 0 10 -9 30 -21 45 -28 36 -95 36 -167 0z
m127 -40 c-32 -38 -149 -73 -149 -44 0 18 91 57 139 59 20 1 22 -1 10 -15z"/>
<path d="M7856 4568 c-26 -36 -19 -67 21 -106 44 -41 90 -62 136 -62 43 0 67
26 67 73 0 29 -6 41 -33 61 -76 58 -164 73 -191 34z m94 -43 c14 -4 40 -18 58
-32 59 -44 32 -59 -41 -22 -47 24 -77 48 -77 61 0 5 8 7 18 4 9 -2 28 -8 42
-11z"/>
<path d="M7664 4416 c-17 -44 36 -77 66 -41 11 13 10 19 -5 35 -21 23 -53 26
-61 6z"/>
<path d="M2285 4352 c-49 -26 -90 -52 -92 -57 -2 -6 3 -19 10 -28 12 -17 16
-17 67 7 30 13 73 27 95 31 38 6 39 6 20 -10 -11 -9 -50 -32 -87 -51 -50 -25
-68 -40 -68 -54 0 -12 7 -23 16 -27 21 -8 182 74 201 103 18 29 3 61 -33 70
-17 4 -22 9 -14 14 15 9 4 50 -13 50 -7 -1 -52 -22 -102 -48z"/>
<path d="M7770 4355 c-19 -23 -7 -37 80 -89 64 -39 85 -48 98 -39 37 23 19 46
-74 95 -79 41 -94 46 -104 33z"/>
<path d="M7562 4218 c-20 -20 -13 -42 18 -63 20 -13 29 -26 26 -38 -5 -20 29
-44 39 -27 4 6 24 -2 51 -21 24 -16 61 -37 81 -45 34 -15 38 -14 62 4 31 23
37 46 22 76 -15 28 -77 70 -90 61 -18 -11 -12 -28 21 -62 18 -18 28 -33 22
-33 -11 0 -124 69 -124 76 0 3 7 19 16 36 13 25 14 32 2 39 -20 13 -26 11 -44
-16 -16 -24 -18 -25 -38 -10 -44 31 -53 34 -64 23z"/>
<path d="M2552 3994 c-81 -40 -118 -101 -92 -150 7 -13 22 -26 32 -30 29 -9
78 15 78 38 0 24 -23 33 -50 18 -32 -17 -37 -4 -10 25 23 25 100 65 122 65 7
0 1 -12 -14 -25 -52 -46 -24 -81 30 -38 51 39 39 98 -23 117 -13 4 -41 -4 -73
-20z"/>
<path d="M7512 3977 c-27 -28 -28 -64 -3 -94 22 -27 34 -29 51 -8 10 12 8 20
-9 41 -23 30 -18 52 7 32 54 -40 53 -38 32 -66 -38 -48 -21 -92 36 -92 23 0
38 8 52 25 11 14 27 25 35 25 8 0 20 6 26 14 10 12 -3 26 -69 80 -91 73 -122
81 -158 43z m145 -113 c8 -21 -13 -42 -28 -27 -13 13 -5 43 11 43 6 0 13 -7
17 -16z"/>
<path d="M2715 3801 c-111 -50 -141 -168 -47 -187 55 -11 154 64 176 133 5 17
1 29 -18 48 -30 30 -57 31 -111 6z m75 -41 c0 -18 -60 -77 -90 -90 -62 -26
-52 14 17 64 48 36 73 44 73 26z"/>
<path d="M7350 3795 c-7 -8 -10 -24 -7 -35 4 -15 0 -20 -13 -20 -30 0 -52 -29
-45 -59 6 -24 5 -24 -12 -10 -20 17 -49 15 -56 -6 -6 -13 152 -175 171 -175 5
0 15 7 22 15 10 12 4 25 -33 72 -24 32 -48 69 -52 83 -6 21 2 16 48 -27 53
-51 88 -65 102 -43 4 6 -6 27 -22 46 -92 115 -97 140 -9 56 67 -65 85 -72 106
-47 11 14 7 23 -31 62 -56 58 -117 103 -139 103 -10 0 -23 -7 -30 -15z"/>
<path d="M2884 3603 c-65 -61 -90 -107 -75 -139 7 -16 19 -24 36 -24 21 0 25
-4 20 -19 -6 -19 17 -46 33 -39 5 1 42 38 81 81 59 64 70 81 60 93 -19 23 -38
17 -91 -31 -48 -43 -78 -57 -78 -35 0 5 22 33 50 62 50 53 61 90 30 95 -8 2
-38 -18 -66 -44z"/>
<path d="M7040 3631 c-19 -36 14 -70 54 -55 22 8 20 30 -4 54 -25 25 -37 25
-50 1z"/>
<path d="M7116 3534 c-6 -16 38 -84 97 -146 31 -33 38 -34 60 -10 16 17 13 23
-50 93 -69 76 -96 92 -107 63z"/>
<path d="M3187 3503 c-15 -15 -37 -28 -49 -28 -18 0 -23 -6 -24 -28 -1 -16
-14 -41 -31 -60 -31 -32 -63 -87 -63 -107 0 -16 47 -60 65 -60 19 0 95 68 95
86 0 23 -45 16 -70 -11 -13 -14 -27 -25 -32 -25 -13 0 6 30 52 83 l42 47 25
-20 c31 -24 39 -25 47 -3 4 10 -2 25 -15 39 l-22 23 27 32 c21 24 24 34 15 45
-17 20 -31 17 -62 -13z"/>
<path d="M6967 3432 c-10 -10 -17 -29 -17 -42 0 -19 -2 -21 -16 -10 -12 11
-18 10 -31 -3 -16 -15 -13 -23 41 -101 32 -47 64 -87 71 -90 7 -2 21 2 32 9
15 12 16 17 6 32 -30 42 -74 136 -71 149 2 8 28 -20 58 -61 39 -54 60 -75 76
-75 12 0 24 6 27 14 10 26 -123 196 -153 196 -4 0 -14 -8 -23 -18z"/>
<path d="M3312 3284 c-40 -32 -82 -102 -82 -138 0 -29 39 -76 64 -76 9 0 30
13 48 29 31 28 32 31 16 47 -17 17 -19 17 -41 -4 -42 -39 -50 -21 -17 34 20
31 22 32 48 18 41 -21 60 -17 77 16 23 44 19 67 -15 85 -40 21 -60 19 -98 -11z
m78 -26 c0 -22 -17 -41 -30 -33 -8 5 -7 12 6 26 20 22 24 23 24 7z"/>
<path d="M6470 3285 c-10 -12 -8 -22 14 -55 26 -40 56 -53 56 -25 0 27 -32 95
-45 95 -7 0 -18 -7 -25 -15z"/>
<path d="M6720 3252 c-27 -22 -30 -76 -6 -100 24 -24 46 1 39 44 -7 43 6 43
34 -1 l23 -34 -27 -13 c-39 -18 -52 -61 -28 -88 21 -23 67 -26 85 -5 8 9 22
12 41 8 45 -9 46 18 2 87 -61 98 -81 120 -113 120 -15 0 -38 -8 -50 -18z m110
-152 c0 -11 -7 -20 -15 -20 -8 0 -15 9 -15 20 0 11 7 20 15 20 8 0 15 -9 15
-20z"/>
<path d="M6330 3189 c0 -6 22 -61 49 -123 27 -61 56 -127 64 -146 24 -57 41
-73 66 -65 31 9 25 28 -60 203 -62 125 -73 142 -95 142 -13 0 -24 -5 -24 -11z"/>
<path d="M3530 3146 c-23 -25 -22 -56 2 -56 6 0 22 10 35 22 32 30 40 16 18
-31 -16 -37 -19 -39 -39 -26 -56 35 -96 21 -96 -34 0 -28 26 -61 48 -61 6 0
12 -10 14 -22 2 -14 11 -24 23 -26 17 -2 30 14 68 82 54 97 58 126 21 155 -35
28 -65 26 -94 -3z m5 -137 c0 -7 -8 -15 -17 -17 -18 -3 -25 18 -11 32 10 10
28 1 28 -15z"/>
<path d="M3736 3002 c-48 -94 -51 -146 -11 -164 19 -8 28 -8 40 2 13 10 15 9
15 -8 0 -11 7 -25 15 -32 25 -21 28 -16 103 163 13 33 14 40 1 48 -25 16 -38
5 -77 -60 -62 -108 -84 -91 -32 24 23 52 28 71 19 81 -22 26 -39 14 -73 -54z"/>
<path d="M5816 3002 c-2 -4 0 -27 4 -52 14 -71 12 -90 -8 -90 -46 0 -71 -69
-52 -141 17 -64 36 -81 87 -78 23 2 45 0 49 -4 4 -4 16 -7 27 -7 18 0 19 5 12
56 -8 68 -59 274 -75 303 -11 21 -34 28 -44 13z m42 -266 c5 -57 -8 -74 -26
-38 -14 25 -25 100 -17 113 14 22 38 -20 43 -75z"/>
<path d="M6039 2932 l-32 -28 11 -63 c20 -113 66 -159 128 -130 26 13 29 19
29 59 0 38 -3 45 -20 45 -16 0 -21 -8 -25 -40 l-5 -40 -17 25 c-33 51 -32 67
7 85 41 20 46 48 14 89 -26 33 -51 33 -90 -2z m61 -48 c0 -8 -7 -14 -15 -14
-10 0 -15 10 -15 26 0 22 2 25 15 14 8 -7 15 -19 15 -26z"/>
<path d="M4188 2889 c-34 -25 -36 -59 -8 -112 11 -20 20 -44 20 -52 0 -22 -28
-18 -35 6 -10 30 -39 20 -43 -16 -4 -36 18 -55 65 -55 40 0 73 30 73 65 0 14
-11 48 -25 75 -26 51 -20 74 10 40 26 -29 55 -26 55 4 0 27 -42 66 -69 66 -9
0 -28 -10 -43 -21z"/>
<path d="M4702 2898 c-20 -20 -14 -48 13 -60 31 -14 36 -9 38 34 2 26 -2 34
-18 36 -11 1 -26 -3 -33 -10z"/>
<path d="M4412 2843 c-17 -33 -41 -158 -35 -186 7 -36 46 -56 73 -39 15 9 19
7 23 -9 4 -15 12 -20 28 -17 20 3 25 13 41 88 25 122 24 140 -7 140 -14 0 -27
-6 -29 -12 -24 -88 -39 -128 -53 -139 -17 -15 -17 -7 3 128 5 35 3 43 -14 52
-17 9 -23 8 -30 -6z"/>
<path d="M5368 2791 c-31 -25 -42 -91 -26 -164 21 -103 138 -106 138 -3 0 33
-3 37 -22 34 -16 -2 -24 -11 -26 -28 -5 -36 -20 -47 -27 -19 -15 64 -12 72 27
82 44 10 51 25 35 75 -10 31 -17 38 -43 40 -19 2 -40 -5 -56 -17z m56 -62
c-11 -18 -24 -8 -24 19 1 26 1 26 15 8 8 -10 12 -23 9 -27z"/>
<path d="M4686 2781 c-9 -14 -34 -184 -29 -197 2 -7 13 -14 24 -17 14 -4 23 1
29 17 11 29 30 188 24 198 -7 11 -42 10 -48 -1z"/>
<path d="M4863 2757 c-30 -44 -29 -50 12 -96 19 -21 35 -48 35 -60 0 -27 -15
-27 -34 0 -16 24 -46 20 -46 -6 0 -36 20 -55 58 -55 87 0 109 66 47 140 -47
56 -46 79 2 45 23 -16 53 -11 53 9 0 22 -46 56 -76 56 -22 0 -35 -8 -51 -33z"/>
<path d="M5111 2764 c-32 -41 -27 -72 21 -121 32 -33 39 -46 30 -55 -9 -9 -16
-8 -30 5 -23 21 -38 22 -46 1 -9 -22 20 -64 43 -64 41 0 81 22 88 48 10 39 5
52 -38 100 -43 45 -44 74 -4 48 26 -17 55 -12 55 9 0 20 -49 55 -76 55 -12 0
-32 -12 -43 -26z"/>
</g>
</svg>
