<svg version="1.0" xmlns="http://www.w3.org/2000/svg" width="1440" height="1440" viewBox="0 0 1080 1080">
  <path d="M481.5 109c-99.7 8.4-185.6 47.9-255.1 117.4-33.4 33.5-56.5 65.7-76.9 107.1-21.2 43.1-32.8 82.3-39.1 132-2.3 17.3-2.6 66.7-.6 84.5 9.1 81 37.7 150.4 88 213.5 20.1 25.3 57.2 59.6 85.2 78.8 31.6 21.7 73.6 42.2 109 53.1 68.5 21 145.5 23.2 214.5 6 60-15 112.2-41.4 161.5-81.8 11.9-9.7 45.1-43.2 54.2-54.7 40.6-51 67.8-107.1 81.2-167.4 24.4-110.1 1.3-226.3-63.3-318.1-40.6-57.6-97.2-105-159.4-133.5-42.5-19.5-79.2-29.8-126-35.5-15-1.8-58.3-2.6-73.2-1.4m74 26.4c21.3 2.8 39.7 6.6 57.5 11.8 5.8 1.6 12 3.4 13.8 4 14.5 4.2 44.7 17.2 62.7 27 35.6 19.4 63.5 40.6 91.8 69.7 51.7 53.3 87 121.1 100.2 192.6 4.9 27 6 39.2 6 70.5 0 28.9-.6 37.9-4.1 59.5-15 92.6-63.4 175.7-136.3 234.4-47.8 38.5-106.9 65.9-165.1 76.5-28.2 5.2-38.6 6.1-70.5 6.1-39.4 0-58.9-2.3-93.5-11-42.6-10.6-82.2-28.3-118.5-52.9-82.7-55.9-138.8-139.7-159-237.3-5.5-26.8-6.9-42.2-6.9-76.3 0-33.2 1.2-47.3 6.5-73.5 20.7-103.6 84.6-194.4 175.4-249.6 48.1-29.1 106.8-48.2 163.5-52.9 14.8-1.3 62.7-.4 76.5 1.4"/>
  <path d="M520.8 180.1c-1 .5-2.8 4.5-4.3 9.2-2.8 9.3-10 38.2-11 44.2-.3 2.2-.8 4.8-1.1 5.7-.4 1.3.3 1.8 3.1 2.4 2 .3 4.1.2 4.6-.3s1.6-3.9 2.5-7.6l1.7-6.8 4.6.6c6.8.9 7.1 1.1 7.1 4.7 0 4.1 1.8 10.5 3.1 11.4 1.9 1.1 5.6-.5 6.7-3.1 1.8-3.9 1.4-16.9-.7-30.2-1.1-6.5-2.3-15.2-2.7-19.3-.8-9.9-2.2-12-7.7-12-2.3 0-5 .5-5.9 1.1m5.5 29.8.2 9.6-4.4.3-4.3.3.6-3.8c.6-3.2 3.5-13.8 5.3-19.3 1-3.2 2.4 3.5 2.6 12.9m41.1-26.2c-1.2.2-2.9 1.2-3.7 2.1s-4.3 14.5-7.7 30.1c-6.8 30.6-6.8 30.4-.6 29.9 2.7-.3 3-.8 5.1-8.3 1.3-4.4 3.1-11.8 4.1-16.5l1.9-8.5.6 6c.4 3.3.7 8.9.8 12.5.1 6.4 1.3 12.2 3 14.8.4.8 2.7 1.6 4.9 1.9 3.8.5 4.2.3 5.2-2.2.6-1.5 1.5-5.9 2.1-9.9.5-3.9 2.1-11.6 3.5-17.1 3.4-13.4 6.4-26.6 6.4-28.3 0-.9-1.2-1.2-4.2-1-3.8.3-4.3.6-4.9 3.3-.4 1.6-2 8.7-3.6 15.8-2.8 12.5-2.8 12.6-3.5 8-.3-2.7-.7-9.1-.7-14.3-.2-10.6-1.3-16.9-3.3-18.1-1.3-.9-1.8-.9-5.4-.2M443 185.5c-11.6 5.3-11.7 16.1-.2 29.3 13.8 15.9 16.5 21 12.8 24.1-1.3 1.1-3.8-1.2-9.7-8.7-1.3-1.6-2.3-1.5-5 .6-2.1 1.8-2.2 2.1-1 6.4.7 2.5 2.6 6 4.1 7.7 2.6 2.8 3.5 3.1 8.6 3.1 7.2 0 11.6-2.5 13.8-8 3.6-9 1.9-13.2-10.2-26.5-7.8-8.5-10.7-13.6-9.7-17.2.8-3.4 2.9-2.8 5.3 1.6 1.3 2.2 3.1 4.3 4.2 4.6 2.7.8 6-1.2 6-3.6 0-3.8-3.1-11.5-5.1-12.7-3.3-2.1-10.1-2.4-13.9-.7M404.3 197c-1.3.5-2.3 1.4-2.3 1.9s1.8 7.6 4.1 15.8c2.2 8.1 5.4 19.9 7 26.1 1.6 6.3 3.2 11.8 3.5 12.4 1 1.5 8.6.2 10-1.7 1-1.3.9-2.7-.2-6.3-1.4-4.6-3.2-11.1-7.4-26.7-2.5-9.1-8.8-21.9-11-22.2-.8-.1-2.5.2-3.7.7m210.3-.2c-.2.4-2.9 7.7-6 16.2s-7.5 20.3-9.7 26.2c-2.2 6-3.8 11.2-3.5 11.6.3.5 2.3 1.7 4.6 2.7 5.2 2.4 5.9 1.7 9.5-9.5 1.5-4.7 4.3-12.3 6.2-16.9 3.3-8.4 6.7-24.8 5.7-27.6-.6-1.5-6.1-3.8-6.8-2.7m-241.3 7.4c-2.2.6-3.4 1.6-3.7 3.1-.3 1.2-.7 3.4-1 4.8-.5 2.3 1.4 18.9 3 25.9.3 1.4-2.2-1.5-5.6-6.5-7.3-10.7-10.8-14.5-13.1-14.5-2.4 0-7.9 5.7-7.9 8.1 0 1.7 5.7 15.4 17 40.6 1.6 3.4 3.1 7.6 3.5 9.3.8 3.8 3.8 3.8 6.7-.1 2.1-2.8 1.9-3.7-3.9-16.9-3.8-8.6-7.3-17.3-7-17.6.1-.2 3.2 4 6.7 9.3 3.5 5.2 6.9 9.7 7.5 10 .7.2 2.4-.1 3.8-.6 3.5-1.3 3.5-3.9.2-20.1-1.4-6.8-2.5-12.6-2.4-12.9 0-.3 1.7 4.1 3.8 9.9 4.7 13 9.8 24.2 11.4 25.2 2.2 1.4 6.4.8 8.2-1.2 1.7-1.9 1.7-2.2-1.5-9.7-3.7-9-16.3-37.2-18.8-42.1-2.3-4.5-3.2-5-6.9-4m269.9 9c-1.1 1.8-6.3 12.1-11.7 22.8s-10.6 20.7-11.6 22.1c-1.6 2.3-1.7 2.8-.5 3.9.8.6 2.9 1 4.7.8 3.7-.3 5.9-3.5 14.5-20.6 2.5-5.1 4.8-9.1 5.1-8.8.2.2-.9 4.8-2.6 10.2-3.7 11.7-3.7 12.8-1 14.8 3.7 2.5 4.8 1.7 16.7-12.7 4-4.8 7.5-8.7 7.8-8.7.2 0-1.9 3.7-4.8 8.2-2.8 4.6-6.9 12-9.1 16.5-3.8 8-3.9 8.4-2.3 10.8 2.2 3.4 6.5 4.4 8.3 1.9 1.8-2.4 26.3-51.1 26.3-52.2 0-.5-1.6-1.7-3.5-2.8-3.4-1.8-3.6-1.8-7.2.1-2 1.1-7.5 6.1-12.2 11.2s-8.6 9.1-8.8 9c-.1-.2 1.1-4.5 2.7-9.7 4.3-13.7 4.7-17.6 2.2-18.9-1.2-.6-4.1-1.1-6.6-1.1-3.9 0-4.7.4-6.4 3.2m-333.1 27.4c-2.3 1.9-3.1 3.4-3.1 5.8 0 4.5 11.1 32.9 19.1 48.8l3.9 7.7 3-1c3.8-1.4 3.9-4.3.5-11.7-1.4-3-2.5-5.5-2.5-5.6 0-.2 2.2-1.3 4.9-2.6l5-2.3 5.2 4.7c5.6 5 8.2 5.7 9.9 2.5 2.8-5.1-1.5-11.3-22.4-32.5-10.9-11-16.9-16.4-18.3-16.4-1.2 0-3.5 1.2-5.2 2.6m17.7 22.6c3.9 4.2 7.2 8.1 7.2 8.6s-1.6 2.2-3.5 3.6l-3.4 2.6-1.7-3.2c-.9-1.7-2.7-6.1-3.9-9.7-1.3-3.6-2.6-7.4-3.1-8.5-1.2-3.1.7-1.6 8.4 6.6m371.6-22.3c-6.1 3.7-7.6 7.2-9.2 21-.7 6.9-1.6 14.6-1.9 17-.5 4.9-4.2 9.5-6.7 8.5-1.8-.7-2.1-5.9-.6-9.8 1.2-3.4.4-5.5-2.6-6.2-2.9-.7-4.9.8-6.8 5-3.6 7.9-2.6 12 4.1 17.5 4.6 3.8 9.9 4.1 15.8.8 6-3.4 7.6-7.5 8.7-23 .9-14.2 1.9-18 5.2-20.2 3.3-2.4 3.9-1.8 3.2 2.7-1.1 6.4-.9 8.1 1.1 9.6 3.1 2.3 5.4 1 8.4-4.9 2.6-4.8 2.8-6 1.9-8.5-1.6-4.1-4.8-7.4-9.5-9.5-5.1-2.4-7.2-2.4-11.1 0m-218.8 52.7c-87.9 11.9-160.8 77.4-182.7 164-5.1 20.3-6.2 31.2-5.6 56.9.5 23.8 1.5 31.6 6.3 50.7 9.7 38.7 32 76.4 61.6 104.3 54.4 51.2 129.3 71 202.5 53.5 29.3-7 59.8-22.1 84.7-41.8 9.1-7.2 26.6-24.7 33.7-33.7 31.4-39.8 47.9-86.3 47.9-135 0-26.9-3.1-46.3-11.1-70.8-25.9-79.2-96.2-137.5-178.7-148.1-15-1.9-44.5-2-58.6 0m60.5 13.4c1.6.9 1.9 2.2 1.9 8.3 0 9.3 1.2 11.3 6.6 10.4 2.1-.4 8.8-3.2 14.9-6.3 9.7-4.9 11.3-5.4 13.8-4.5 1.5.6 2.7 1.7 2.7 2.5 0 2.4 6.1 6.4 12.8 8.4 6.9 2.2 13.7 5.9 16.6 9.1 1 1.1 2.6 4.4 3.6 7.3 1.6 5 1.9 5.3 7.3 7.1 9.9 3.3 17.8 14.6 11.3 16.3-2.8.7-4.8-.3-10.5-5-4.1-3.4-11-6.2-13.4-5.3-.7.2 1 1.7 3.7 3.3 12.1 7.1 17.6 13.1 17.6 18.8 0 3.7-.4 4.3-5.2 7.9-3.2 2.4-3.8 3.4-3.8 6.5 0 7.7 6.9 14 13.9 12.7 5.5-1 6.9-2.1 9.6-7.5 3.7-7.2 6.6-6.8 12.5 2 2.9 4.3 5.2 6.4 9.4 8.5 5.1 2.6 5.7 3.2 6.2 6.7.4 2.1 1 4.1 1.4 4.3.4.3 4 .9 7.9 1.5 13.5 1.9 16.8 6.1 8.4 10.6-2.4 1.2-5.9 3.2-7.9 4.5l-3.6 2.2-6.7-7.2c-3.6-4-7.7-7.8-9.1-8.4-1.9-1-2.6-2.1-2.8-5.2-.4-4.7-2.6-7.5-5.9-7.5s-24.4 7-26.5 8.8c-1 .8-1.8 2.7-1.8 4.2 0 4-2 5.9-7.4 6.9-8 1.5-8.1 1.7-8.1 21.1v16.9l-2.9 3c-2.1 2.2-3.9 3.1-6.2 3.1-3.7 0-6.4.8-6.4 2 0 .4 2.3 3.6 5.1 7.1 6.7 8.4 9.4 13.2 12.3 21.6 1.3 3.9 3.1 8.2 4 9.5 3.6 5.4 10.7 6.1 23.7 2.3 12.2-3.6 12.5-3.5 13.1 2.6.3 2.8 1.2 5.7 2 6.6 1.4 1.3 1.9 1.3 4.8-.2 4.4-2.3 6-1.4 6 3.3 0 3.4-.7 4.5-5.5 9.1-3 2.9-5.5 5.8-5.5 6.4s2 3 4.5 5.3c4.2 3.8 4.5 4.4 4.5 9.3 0 5.8-2.6 11.9-7.1 16.7-1.9 2-3.6 5.5-5 10.4-2.3 8.3-4.8 12.4-8.9 14.5-5.1 2.7-5.5 4.8-2.5 13.2 1.9 5.2 2.5 8 1.9 9.4-.5 1-4.3 4.7-8.4 8.2-10 8.4-13.4 13.3-13.4 19.5 0 5.4 4.3 15.9 7 16.9 1.6.6 15.8-13.2 38.9-38 9.7-10.4 12.4-11.7 16-7.7 2.1 2.3 2 2.4-7.8 15.4-22 28.9-54 53-89.2 66.9-49 19.4-106.7 18.7-155.4-1.9-66.9-28.5-113.7-89.1-124.6-161.9-2.6-16.9-2.4-45.7.3-61.5 7.5-44.2 27.1-82.2 58.6-113.6 11.3-11.2 29-25.5 36.8-29.7 3.3-1.7 3.5-1.7 7.8.1l4.5 1.9-3.5 3.3c-1.9 1.8-8.5 7.5-14.6 12.5-14 11.7-20.4 20.2-23.3 31.1-1.1 4.2-.6 7.7 1.1 7.2.5-.2 2.6-3.5 4.7-7.3 2.7-5.2 4.4-7.1 6.1-7.3 2.2-.4 2.3-.2 1.7 4.6-.3 2.8-2.7 9.6-5.3 15.3-4.9 10.8-6.3 17.3-4.2 20 .7.8 3.9 3.2 7 5.2 4.2 2.6 6.5 5.1 9 9.4 1.9 3.2 4.6 6.4 6 7.1 3 1.4 4.5 5.2 5.5 12.9.5 4.7 1.1 5.8 4.1 8.1 3.1 2.3 4.5 2.7 10.6 2.7 3.9 0 8.6-.4 10.4-.8 2.7-.7 3.2-.6 3.2.9 0 2.6-4.1 7.6-17 20.9-13.8 14.1-15 15.8-15 20.5 0 3.9 1.1 5.8 7.7 13.6 4.6 5.5 7.3 10.9 7.3 14.7 0 1.3-1.4 5-3.1 8.2-3.9 7.4-3.3 8.7 7.3 15 8.8 5.2 9.9 7 9.9 15.1 0 8-1.9 13-7.8 19.5-6.5 7.3-6.6 8.6-2 24.8l3.2 11.6-.3 20.7c-.2 16.4 0 21.4 1.2 24.1 2.2 5.5 8.7 8.8 12.1 6.3 1.9-1.3 1.9-1.7.2-13.4-2.2-16.4-.8-21.2 6.3-21.2 5 0 8.2-2.7 11.9-10.2 2.9-5.7 3.3-6.1 6.9-6.4 2.1-.2 5.5-1 7.4-1.8 5-2.1 12.3-10.6 14.9-17.5 2.3-5.8 2.4-5.9 7.9-7.5 10.8-3 14.2-6.5 16.6-16.8 2.2-9.2 5.2-13.5 17.3-24.9 6-5.6 11.4-11.3 12-12.6 2.9-6.3 0-13.3-7.4-18.5-7.8-5.4-28.8-11.8-38.6-11.8-2.5 0-2.9-.4-2.9-2.8 0-1.5 2.3-7.6 5.2-13.5 4-8.4 5-11.2 4.2-12.5-.6-.9-3.9-3.1-7.3-4.9-7.7-3.9-9.7-5.7-12.2-10.6-2.9-5.6-9.3-11.6-15.6-14.4-8.3-3.8-17.9-4.1-33.3-.9-11.2 2.2-12.7 2.3-14.7 1-2-1.2-2.3-2.3-2.3-7.2 0-3.2.7-7.9 1.6-10.5 2.5-7.3 1.8-9-4.1-10.3-3.4-.7-4.9-1.5-4.7-2.5.2-.8.7-1.6 1.1-1.9 5.1-3.4 10-8.5 9.2-9.3-1.8-1.8-8.2-.9-11.5 1.6-4.2 3.2-6.2 3.8-9 2.7-3.4-1.2-4.9-6.2-3.5-11.4.8-3.1 3.1-6.1 9.3-12.1 9.4-9.4 16.7-13.5 23.6-13.5 7.9 0 11 5.7 11 20.2 0 4.3.4 7.8.9 7.8 1 0 3.2-5.6 6.3-16.3 2.1-7.4 2.7-8.3 9.4-14.7 10.5-9.9 23.9-16 35.8-16 4.9 0 6.2-1.3 4.2-4.1-1.6-2.3-2.2-5.9-1-5.9.3 0 2.4 1.5 4.7 3.4 7.7 6.1 12.5 7.2 16.8 3.7l2.3-1.8-2.5-1.4c-1.3-.7-4.2-2.2-6.3-3.4-5.3-2.8-6.3-5.9-3-9.2 2.1-2.1 3.2-2.4 6-2 5 .8 10.1 4.3 13 8.8 2.8 4.5 5.1 5 6 1.3 1.8-7.1-2.2-16.7-10.5-25.4-6.7-7.1-9.2-7.6-14.6-2.9-1.9 1.7-6.5 5.1-10.2 7.4-7 4.5-8.3 4.5-8.3-.2 0-1.2-.4-3.3-1-4.7-.9-2.3-1.2-2.5-3.5-1.4-2.2 1-2.9.9-4.8-1.1-1.9-1.8-2-2.3-.7-3.1 1.9-1.2 8.6-1.2 16.7-.1 7.7 1.1 10.1.6 10.9-2.6.4-1.4 2.2-3.2 4.6-4.4l3.9-2 4 3.6c3.3 3 4.7 3.6 7.7 3.3 4-.3 4.3-1.4 2.7-8-.7-2.7-.7-2.7 5.6-3.1 3.5-.2 7-.4 7.7-.5s2.2.3 3.3.8m-326 286.8c-.5 1-3.4 2.6-6.4 3.5-7.3 2.3-10.7 5.1-10.7 8.7 0 5.7 5.3 7.6 12.7 4.5 3.1-1.3 3.4-1.7 2.2-3.1-1-1.2-2.4-1.5-6.4-1-5 .6-5 .6-2.2-1 1.6-.8 4.9-2.2 7.5-3 4.2-1.3 4.8-1.2 5.7.2 3 4.7 3.2 4.9 4.8 3.5 1.2-1 1.4-1.8.6-3.8-1.1-3-1.3-2.7 3.1-3.9 2.1-.6 3.6-1.7 3.8-2.8q.9-4.5-5.4-2.7c-2.5.7-4.2.7-4.8.1-1.5-1.5-3.4-1.2-4.5.8m582 1.6c-.9 1-1.1 2.9-.8 5.2.4 2 .3 3.4 0 3-.8-.8-3.3 1.3-3.3 2.9 0 .7 3.7 2.8 8.3 4.8 10.7 4.5 10.9 4.6 13 3.5 3.1-1.6 1.8-3.7-4.1-6.7-6.2-3.1-11.4-7-9.5-7.1.6 0 4.7 1.3 9.1 2.9 7.5 2.8 8.1 2.9 9.6 1.3 2.2-2.5.9-3.7-7.6-7.2-10.3-4.1-13.1-4.6-14.7-2.6m-582.9 26.2c-2.9 1.4-5.7 3.5-6.3 4.6-1.7 3.2-.2 7.3 3.5 9.3 3 1.6 3.6 1.6 8.7.2 6-1.8 12.9-6.9 12.9-9.6 0-1-.9-3-2.1-4.5-2.8-3.6-9.5-3.6-16.7 0m12.7 4c-3.2 3.8-14.9 7.3-14.9 4.4 0-1.8 9.1-5.7 13.9-5.9 2-.1 2.2.1 1 1.5m558.7-2.4c-2.6 3.6-1.9 6.7 2.1 10.6 4.4 4.1 9 6.2 13.6 6.2 4.3 0 6.7-2.6 6.7-7.3 0-2.9-.6-4.1-3.3-6.1-7.6-5.8-16.4-7.3-19.1-3.4m9.4 4.3c1.4.4 4 1.8 5.8 3.2 5.9 4.4 3.2 5.9-4.1 2.2-4.7-2.4-7.7-4.8-7.7-6.1 0-.5.8-.7 1.8-.4.9.2 2.8.8 4.2 1.1m-28.6 10.9c-1.7 4.4 3.6 7.7 6.6 4.1 1.1-1.3 1-1.9-.5-3.5-2.1-2.3-5.3-2.6-6.1-.6m-537.9 6.4c-4.9 2.6-9 5.2-9.2 5.7-.2.6.3 1.9 1 2.8 1.2 1.7 1.6 1.7 6.7-.7 3-1.3 7.3-2.7 9.5-3.1 3.8-.6 3.9-.6 2 1-1.1.9-5 3.2-8.7 5.1-5 2.5-6.8 4-6.8 5.4 0 1.2.7 2.3 1.6 2.7 2.1.8 18.2-7.4 20.1-10.3 1.8-2.9.3-6.1-3.3-7-1.7-.4-2.2-.9-1.4-1.4 1.5-.9.4-5-1.3-5-.7.1-5.2 2.2-10.2 4.8m548.5-.3c-1.9 2.3-.7 3.7 8 8.9 6.4 3.9 8.5 4.8 9.8 3.9 3.7-2.3 1.9-4.6-7.4-9.5-7.9-4.1-9.4-4.6-10.4-3.3m-20.8 13.7c-2 2-1.3 4.2 1.8 6.3 2 1.3 2.9 2.6 2.6 3.8-.5 2 2.9 4.4 3.9 2.7.4-.6 2.4.2 5.1 2.1 2.4 1.6 6.1 3.7 8.1 4.5 3.4 1.5 3.8 1.4 6.2-.4 3.1-2.3 3.7-4.6 2.2-7.6-1.5-2.8-7.7-7-9-6.1-1.8 1.1-1.2 2.8 2.1 6.2 1.8 1.8 2.8 3.3 2.2 3.3-1.1 0-12.4-6.9-12.4-7.6 0-.3.7-1.9 1.6-3.6 1.3-2.5 1.4-3.2.2-3.9-2-1.3-2.6-1.1-4.4 1.6-1.6 2.4-1.8 2.5-3.8 1-4.4-3.1-5.3-3.4-6.4-2.3m-501 22.4c-8.1 4-11.8 10.1-9.2 15 .7 1.3 2.2 2.6 3.2 3 2.9.9 7.8-1.5 7.8-3.8 0-2.4-2.3-3.3-5-1.8-3.2 1.7-3.7.4-1-2.5 2.3-2.5 10-6.5 12.2-6.5.7 0 .1 1.2-1.4 2.5-5.2 4.6-2.4 8.1 3 3.8 5.1-3.9 3.9-9.8-2.3-11.7-1.3-.4-4.1.4-7.3 2m496 1.7c-2.7 2.8-2.8 6.4-.3 9.4 2.2 2.7 3.4 2.9 5.1.8 1-1.2.8-2-.9-4.1-2.3-3-1.8-5.2.7-3.2 5.4 4 5.3 3.8 3.2 6.6-3.8 4.8-2.1 9.2 3.6 9.2 2.3 0 3.8-.8 5.2-2.5 1.1-1.4 2.7-2.5 3.5-2.5s2-.6 2.6-1.4c1-1.2-.3-2.6-6.9-8-9.1-7.3-12.2-8.1-15.8-4.3m14.5 11.3c.8 2.1-1.3 4.2-2.8 2.7-1.3-1.3-.5-4.3 1.1-4.3.6 0 1.3.7 1.7 1.6m-494.2 6.3c-11.1 5-14.1 16.8-4.7 18.7 5.5 1.1 15.4-6.4 17.6-13.3.5-1.7.1-2.9-1.8-4.8-3-3-5.7-3.1-11.1-.6m7.5 4.1c0 1.8-6 7.7-9 9-6.2 2.6-5.2-1.4 1.7-6.4 4.8-3.6 7.3-4.4 7.3-2.6m456-3.5c-.7.8-1 2.4-.7 3.5.4 1.5 0 2-1.3 2-3 0-5.2 2.9-4.5 5.9.6 2.4.5 2.4-1.2 1-2-1.7-4.9-1.5-5.6.6-.6 1.3 15.2 17.5 17.1 17.5.5 0 1.5-.7 2.2-1.5 1-1.2.4-2.5-3.3-7.2-2.4-3.2-4.8-6.9-5.2-8.3-.6-2.1.2-1.6 4.8 2.7 5.3 5.1 8.8 6.5 10.2 4.3.4-.6-.6-2.7-2.2-4.6-9.2-11.5-9.7-14-.9-5.6 6.7 6.5 8.5 7.2 10.6 4.7 1.1-1.4.7-2.3-3.1-6.2-5.6-5.8-11.7-10.3-13.9-10.3-1 0-2.3.7-3 1.5m-446.6 19.2c-6.5 6.1-9 10.7-7.5 13.9q1.05 2.4 3.6 2.4c2.1 0 2.5.4 2 1.9-.6 1.9 1.7 4.6 3.3 3.9.5-.1 4.2-3.8 8.1-8.1 5.9-6.4 7-8.1 6-9.3-1.9-2.3-3.8-1.7-9.1 3.1-4.8 4.3-7.8 5.7-7.8 3.5 0-.5 2.2-3.3 5-6.2 5-5.3 6.1-9 3-9.5-.8-.2-3.8 1.8-6.6 4.4m415.6-2.8c-1.9 3.6 1.4 7 5.4 5.5 2.2-.8 2-3-.4-5.4-2.5-2.5-3.7-2.5-5-.1m7.6 9.7c-.6 1.6 3.8 8.4 9.7 14.6 3.1 3.3 3.8 3.4 6 1 1.6-1.7 1.3-2.3-5-9.3-6.9-7.6-9.6-9.2-10.7-6.3m-392.9 3.1c-1.5 1.5-3.7 2.8-4.9 2.8-1.8 0-2.3.6-2.4 2.8-.1 1.6-1.4 4.1-3.1 6-3.1 3.2-6.3 8.7-6.3 10.7 0 1.6 4.7 6 6.5 6 1.9 0 9.5-6.8 9.5-8.6 0-2.3-4.5-1.6-7 1.1-1.3 1.4-2.7 2.5-3.2 2.5-1.3 0 .6-3 5.2-8.3l4.2-4.7 2.5 2c3.1 2.4 3.9 2.5 4.7.3.4-1-.2-2.5-1.5-3.9l-2.2-2.3 2.7-3.2c2.1-2.4 2.4-3.4 1.5-4.5-1.7-2-3.1-1.7-6.2 1.3m378 7.1c-1 1-1.7 2.9-1.7 4.2 0 1.9-.2 2.1-1.6 1-1.2-1.1-1.8-1-3.1.3-1.6 1.5-1.3 2.3 4.1 10.1 3.2 4.7 6.4 8.7 7.1 9 .7.2 2.1-.2 3.2-.9 1.5-1.2 1.6-1.7.6-3.2-3-4.2-7.4-13.6-7.1-14.9.2-.8 2.8 2 5.8 6.1 3.9 5.4 6 7.5 7.6 7.5 1.2 0 2.4-.6 2.7-1.4 1-2.6-12.3-19.6-15.3-19.6-.4 0-1.4.8-2.3 1.8m-365.5 14.8c-4 3.2-8.2 10.2-8.2 13.8 0 2.9 3.9 7.6 6.4 7.6.9 0 3-1.3 4.8-2.9 3.1-2.8 3.2-3.1 1.6-4.7-1.7-1.7-1.9-1.7-4.1.4-4.2 3.9-5 2.1-1.7-3.4 2-3.1 2.2-3.2 4.8-1.8 4.1 2.1 6 1.7 7.7-1.6 2.3-4.4 1.9-6.7-1.5-8.5-4-2.1-6-1.9-9.8 1.1m7.8 2.6c0 2.2-1.7 4.1-3 3.3-.8-.5-.7-1.2.6-2.6 2-2.2 2.4-2.3 2.4-.7m308-2.7c-1 1.2-.8 2.2 1.4 5.5 2.6 4 5.6 5.3 5.6 2.5 0-2.7-3.2-9.5-4.5-9.5-.7 0-1.8.7-2.5 1.5m25 3.3c-2.7 2.2-3 7.6-.6 10s4.6-.1 3.9-4.4.6-4.3 3.4.1l2.3 3.4-2.7 1.3c-3.9 1.8-5.2 6.1-2.8 8.8 2.1 2.3 6.7 2.6 8.5.5.8-.9 2.2-1.2 4.1-.8 4.5.9 4.6-1.8.2-8.7-6.1-9.8-8.1-12-11.3-12-1.5 0-3.8.8-5 1.8m11 15.2c0 1.1-.7 2-1.5 2s-1.5-.9-1.5-2 .7-2 1.5-2 1.5.9 1.5 2m-50-8.9c0 .6 2.2 6.1 4.9 12.3 2.7 6.1 5.6 12.7 6.4 14.6 2.4 5.7 4.1 7.3 6.6 6.5 3.1-.9 2.5-2.8-6-20.3-6.2-12.5-7.3-14.2-9.5-14.2-1.3 0-2.4.5-2.4 1.1m-280 4.3c-2.3 2.5-2.2 5.6.2 5.6.6 0 2.2-1 3.5-2.2 3.2-3 4-1.6 1.8 3.1-1.6 3.7-1.9 3.9-3.9 2.6-5.6-3.5-9.6-2.1-9.6 3.4 0 2.8 2.6 6.1 4.8 6.1.6 0 1.2 1 1.4 2.2.2 1.4 1.1 2.4 2.3 2.6 1.7.2 3-1.4 6.8-8.2 5.4-9.7 5.8-12.6 2.1-15.5-3.5-2.8-6.5-2.6-9.4.3m.5 13.7c0 .7-.8 1.5-1.7 1.7-1.8.3-2.5-1.8-1.1-3.2 1-1 2.8-.1 2.8 1.5m20.1.7c-4.8 9.4-5.1 14.6-1.1 16.4 1.9.8 2.8.8 4-.2 1.3-1 1.5-.9 1.5.8 0 1.1.7 2.5 1.5 3.2 2.5 2.1 2.8 1.6 10.3-16.3 1.3-3.3 1.4-4 .1-4.8-2.5-1.6-3.8-.5-7.7 6-6.2 10.8-8.4 9.1-3.2-2.4 2.3-5.2 2.8-7.1 1.9-8.1-2.2-2.6-3.9-1.4-7.3 5.4m208 0c-.2.4 0 2.7.4 5.2 1.4 7.1 1.2 9-.8 9-4.6 0-7.1 6.9-5.2 14.1 1.7 6.4 3.6 8.1 8.7 7.8 2.3-.2 4.5 0 4.9.4s1.6.7 2.7.7c1.8 0 1.9-.5 1.2-5.6-.8-6.8-5.9-27.4-7.5-30.3-1.1-2.1-3.4-2.8-4.4-1.3m4.2 26.6c.5 5.7-.8 7.4-2.6 3.8-1.4-2.5-2.5-10-1.7-11.3 1.4-2.2 3.8 2 4.3 7.5m18.1-19.6-3.2 2.8 1.1 6.3c2 11.3 6.6 15.9 12.8 13 2.6-1.3 2.9-1.9 2.9-5.9 0-3.8-.3-4.5-2-4.5-1.6 0-2.1.8-2.5 4l-.5 4-1.7-2.5c-3.3-5.1-3.2-6.7.7-8.5 4.1-2 4.6-4.8 1.4-8.9-2.6-3.3-5.1-3.3-9 .2m6.1 4.8c0 .8-.7 1.4-1.5 1.4-1 0-1.5-1-1.5-2.6 0-2.2.2-2.5 1.5-1.4.8.7 1.5 1.9 1.5 2.6m-191.2-.5c-3.4 2.5-3.6 5.9-.8 11.2 1.1 2 2 4.4 2 5.2 0 2.2-2.8 1.8-3.5-.6-1-3-3.9-2-4.3 1.6s1.8 5.5 6.5 5.5c4 0 7.3-3 7.3-6.5 0-1.4-1.1-4.8-2.5-7.5-2.6-5.1-2-7.4 1-4 2.6 2.9 5.5 2.6 5.5-.4 0-2.7-4.2-6.6-6.9-6.6-.9 0-2.8 1-4.3 2.1m51.4-.9c-2 2-1.4 4.8 1.3 6 3.1 1.4 3.6.9 3.8-3.4.2-2.6-.2-3.4-1.8-3.6-1.1-.1-2.6.3-3.3 1m-29 5.5c-1.7 3.3-4.1 15.8-3.5 18.6.7 3.6 4.6 5.6 7.3 3.9 1.5-.9 1.9-.7 2.3.9.4 1.5 1.2 2 2.8 1.7 2-.3 2.5-1.3 4.1-8.8 2.5-12.2 2.4-14-.7-14-1.4 0-2.7.6-2.9 1.2-2.4 8.8-3.9 12.8-5.3 13.9-1.7 1.5-1.7.7.3-12.8.5-3.5.3-4.3-1.4-5.2s-2.3-.8-3 .6m95.6 5.2c-3.1 2.5-4.2 9.1-2.6 16.4 2.1 10.3 13.8 10.6 13.8.3 0-3.3-.3-3.7-2.2-3.4-1.6.2-2.4 1.1-2.6 2.8-.5 3.6-2 4.7-2.7 1.9-1.5-6.4-1.2-7.2 2.7-8.2 4.4-1 5.1-2.5 3.5-7.5-1-3.1-1.7-3.8-4.3-4-1.9-.2-4 .5-5.6 1.7m5.6 6.2c-1.1 1.8-2.4.8-2.4-1.9.1-2.6.1-2.6 1.5-.8.8 1 1.2 2.3.9 2.7m-73.8-5.2c-.9 1.4-3.4 18.4-2.9 19.7.2.7 1.3 1.4 2.4 1.7 1.4.4 2.3-.1 2.9-1.7 1.1-2.9 3-18.8 2.4-19.8-.7-1.1-4.2-1-4.8.1m17.7 2.4c-3 4.4-2.9 5 1.2 9.6 1.9 2.1 3.5 4.8 3.5 6 0 2.7-1.5 2.7-3.4 0-1.6-2.4-4.6-2-4.6.6 0 3.6 2 5.5 5.8 5.5 8.7 0 10.9-6.6 4.7-14-4.7-5.6-4.6-7.9.2-4.5 2.3 1.6 5.3 1.1 5.3-.9 0-2.2-4.6-5.6-7.6-5.6-2.2 0-3.5.8-5.1 3.3m24.8-.7c-3.2 4.1-2.7 7.2 2.1 12.1 3.2 3.3 3.9 4.6 3 5.5s-1.6.8-3-.5c-2.3-2.1-3.8-2.2-4.6-.1-.9 2.2 2 6.4 4.3 6.4 4.1 0 8.1-2.2 8.8-4.8 1-3.9.5-5.2-3.8-10-4.3-4.5-4.4-7.4-.4-4.8 2.6 1.7 5.5 1.2 5.5-.9 0-2-4.9-5.5-7.6-5.5-1.2 0-3.2 1.2-4.3 2.6"/>
</svg>
